Coordinates
version=1
nRows=34
nColumns=38
inDegrees=no

Units are S.I. units (second, meters, Newtons, ...)
If the header above contains a line with 'inDegrees', this indicates whether rotational values are in degrees (yes) or radians (no).

endheader
time	pelvis_tilt	pelvis_list	pelvis_rotation	pelvis_tx	pelvis_ty	pelvis_tz	hip_flexion_r	hip_adduction_r	hip_rotation_r	knee_angle_r	ankle_angle_r	subtalar_angle_r	mtp_angle_r	hip_flexion_l	hip_adduction_l	hip_rotation_l	knee_angle_l	ankle_angle_l	subtalar_angle_l	mtp_angle_l	lumbar_extension	lumbar_bending	lumbar_rotation	arm_flex_r	arm_add_r	arm_rot_r	elbow_flex_r	pro_sup_r	wrist_flex_r	wrist_dev_r	arm_flex_l	arm_add_l	arm_rot_l	elbow_flex_l	pro_sup_l	wrist_flex_l	wrist_dev_l
1.47	0.446738	1.37949	1.1865	0.627561	1.47499	1.02711	-0.078364	0.0777746	-0.243798	0.202442	-0.078443	0	0	0.458977	-0.105449	-0.261633	0	-0.222423	0	0	0.0368637	0.0389007	-0.0145145	0.08877	-0.290863	0.187281	0.83421	1.5708	0	0	-0.171574	-0.275491	0.415517	0.40889	1.00546	0	0
1.48	0.442779	1.3833	1.18948	0.62612	1.48838	1.02498	-0.0891765	0.0726499	-0.242139	0.215449	-0.0775157	0	0	0.45875	-0.0980955	-0.265617	0	-0.220185	0	0	0.0312431	0.0338958	-0.0137402	0.0895981	-0.287897	0.181015	0.827384	1.5708	0	0	-0.16939	-0.275078	0.421167	0.399887	1.00002	0	0
1.49	0.436144	1.38815	1.1961	0.624655	1.5021	1.02324	-0.100797	0.0666762	-0.240216	0.228372	-0.0778276	0	0	0.457148	-0.09015	-0.268494	0	-0.222692	0	0	0.025449	0.0275378	-0.0134405	0.0890108	-0.283677	0.173681	0.818352	1.5708	0	0	-0.16721	-0.275337	0.426415	0.391907	0.994791	0	0
1.5	0.426328	1.39562	1.20633	0.623106	1.51621	1.02203	-0.114169	0.0587648	-0.239421	0.243769	-0.0809828	0	0	0.451051	-0.0809631	-0.268625	0	-0.235114	0	0	0.0181759	0.0194288	-0.0126369	0.0873326	-0.276336	0.16098	0.805066	1.5708	0	0	-0.163787	-0.276338	0.43622	0.383525	0.984958	0	0
1.51	0.416192	1.40157	1.2174	0.621537	1.53073	1.02092	-0.126129	0.0516074	-0.236851	0.258411	-0.0887998	0	0	0.447045	-0.073447	-0.270522	0.018654	-0.249084	0	0	0.0138225	0.0118805	-0.0119673	0.0836094	-0.269422	0.149663	0.790266	1.5708	0	0	-0.162044	-0.278406	0.447861	0.378366	0.971883	0	0
1.52	0.403579	1.40572	1.23055	0.620014	1.54559	1.01989	-0.134842	0.0446334	-0.232412	0.275882	-0.0999329	0	0	0.445433	-0.0672659	-0.273963	0.0468957	-0.265323	0	0	0.0126773	0.00451854	-0.0110166	0.0786261	-0.262642	0.140584	0.773317	1.5708	0	0	-0.161964	-0.280873	0.458462	0.375488	0.958281	0	0
1.53	0.38358	1.40888	1.25014	0.618514	1.56071	1.01907	-0.139823	0.0362639	-0.226593	0.29818	-0.115551	0	0	0.444564	-0.0608151	-0.273301	0.0684747	-0.291942	0	0	0.0140328	-0.00365041	-0.00897323	0.0729834	-0.255464	0.13292	0.753181	1.5708	0	0	-0.162214	-0.283759	0.471039	0.373363	0.942381	0	0
1.54	0.357263	1.41102	1.2753	0.617172	1.57584	1.01861	-0.140266	0.0266302	-0.218832	0.326612	-0.134194	0	0	0.444812	-0.0557873	-0.270001	0.0862846	-0.3185	0	0	0.0168267	-0.0126345	-0.00640959	0.0687082	-0.247463	0.127861	0.728303	1.5708	0	0	-0.161981	-0.286666	0.482915	0.371124	0.92652	0	0
1.55	0.324103	1.41276	1.30628	0.616018	1.59081	1.01855	-0.136136	0.0154868	-0.206446	0.361758	-0.157111	0	0	0.444712	-0.0534901	-0.264684	0.104645	-0.334861	0	0	0.0199099	-0.0226505	-0.00285732	0.0660791	-0.238707	0.124969	0.699427	1.5708	0	0	-0.160973	-0.289786	0.493745	0.369794	0.910199	0	0
1.56	0.28457	1.41316	1.34373	0.614908	1.60554	1.01865	-0.126262	0.00371156	-0.191625	0.402522	-0.185649	0	0	0.445743	-0.0531687	-0.260059	0.127681	-0.33579	0	0	0.0242549	-0.0331436	0.000256648	0.0640983	-0.229321	0.123434	0.668307	1.5708	0	0	-0.159996	-0.293506	0.503783	0.370718	0.894587	0	0
1.57	0.237521	1.41187	1.39206	0.613394	1.62022	1.01884	-0.11144	-0.0101451	-0.180842	0.447938	-0.221458	0	0	0.448671	-0.0505692	-0.2497	0.155762	-0.32381	0	0	0.0306902	-0.0444433	-0.000606841	0.06231	-0.219724	0.124007	0.634958	1.5708	0	0	-0.160173	-0.298016	0.512711	0.374569	0.880542	0	0
1.58	0.187039	1.40818	1.44857	0.611411	1.63494	1.01907	-0.0926486	-0.0251569	-0.175702	0.494947	-0.267419	0	0	0.45412	-0.0441299	-0.231124	0.187707	-0.304237	0	0	0.039958	-0.056389	-0.00683563	0.0605427	-0.209732	0.127144	0.599106	1.5708	0	0	-0.161742	-0.303636	0.521701	0.381175	0.866508	0	0
1.59	0.135462	1.40451	1.50448	0.609516	1.6491	1.01953	-0.0708388	-0.0409133	-0.166273	0.545168	-0.313696	0	0	0.458591	-0.0365267	-0.218179	0.219526	-0.285304	0	0	0.0470191	-0.0686314	-0.0124594	0.0605569	-0.20026	0.13323	0.563251	1.5708	0	0	-0.162273	-0.309655	0.528221	0.39021	0.855676	0	0
1.6	0.0830161	1.40136	1.55887	0.607736	1.66277	1.02012	-0.0466808	-0.0567288	-0.153166	0.597974	-0.359273	0	0	0.460705	-0.0275997	-0.212156	0.247416	-0.267621	0	0	0.0515853	-0.0810217	-0.0169448	0.0624177	-0.191312	0.142515	0.527434	1.5708	0	0	-0.161974	-0.31542	0.530514	0.401181	0.847073	0	0
1.61	0.0299633	1.39909	1.61194	0.605904	1.67621	1.02069	-0.0212658	-0.0727356	-0.139522	0.652106	-0.405386	0	0	0.459757	-0.0168597	-0.208156	0.271063	-0.248655	0	0	0.0541458	-0.0930065	-0.0208317	0.0650679	-0.183325	0.155189	0.492782	1.5708	0	0	-0.161179	-0.320897	0.531089	0.413357	0.842333	0	0
1.62	-0.0169834	1.39717	1.65684	0.604045	1.68949	1.02105	0.00568983	-0.0875803	-0.125796	0.706335	-0.453988	0	0	0.45715	-0.00709536	-0.206971	0.293249	-0.227907	0	0	0.0558162	-0.10286	-0.0236174	0.0671096	-0.177431	0.172071	0.461633	1.5708	0	0	-0.160142	-0.325627	0.529807	0.42669	0.841405	0	0
1.63	-0.0546179	1.39705	1.68936	0.602381	1.70256	1.02139	0.0329075	-0.100404	-0.112352	0.759826	-0.506429	0	0	0.451188	-0.000518168	-0.209996	0.31405	-0.206427	0	0	0.0550002	-0.109473	-0.0233104	0.0686672	-0.17418	0.193541	0.4345	1.5708	0	0	-0.157148	-0.328704	0.526766	0.439189	0.844171	0	0
1.64	-0.0818113	1.39934	1.70772	0.601075	1.7154	1.02197	0.0593799	-0.110359	-0.098297	0.810564	-0.558618	0	0	0.440704	0.00223795	-0.216245	0.331677	-0.18542	0	0	0.0511205	-0.112365	-0.0188917	0.0704307	-0.172999	0.219192	0.410145	1.5708	0	0	-0.150986	-0.329385	0.522473	0.448994	0.850219	0	0
1.65	-0.0973842	1.40307	1.71236	0.600104	1.72814	1.02281	0.0851923	-0.117417	-0.0853911	0.857911	-0.595868	0	0	0.426782	0.00220458	-0.222661	0.345068	-0.166465	0	0	0.0461696	-0.111823	-0.0117346	0.0721819	-0.172582	0.246871	0.386725	1.5708	0	0	-0.142157	-0.328544	0.520219	0.455804	0.859479	0	0
1.66	-0.10243	1.40797	1.70473	0.599371	1.74083	1.02398	0.110137	-0.12185	-0.0721691	0.902083	-0.610924	0	0	0.409945	0.000224141	-0.229001	0.353676	-0.148511	0	0	0.040697	-0.108503	-0.00332798	0.0754494	-0.172766	0.281139	0.362017	1.5708	0	0	-0.132294	-0.326239	0.517522	0.460565	0.871914	0	0
1.67	-0.100463	1.41411	1.68923	0.598687	1.75347	1.02546	0.133182	-0.123961	-0.0573426	0.942306	-0.60083	0	0	0.389913	-0.00267123	-0.235847	0.357165	-0.133159	0	0	0.0343706	-0.1032	0.0048406	0.0793779	-0.173242	0.319673	0.337682	1.5708	0	0	-0.122487	-0.322809	0.513179	0.464746	0.887428	0	0
1.68	-0.0975705	1.42193	1.67332	0.597869	1.76607	1.02732	0.153404	-0.125015	-0.0421865	0.979429	-0.568196	0	0	0.365976	-0.00512345	-0.242468	0.355383	-0.120429	0	0	0.0262145	-0.0972685	0.0106018	0.0844764	-0.174282	0.365954	0.314152	1.5708	0	0	-0.114231	-0.318559	0.503021	0.470159	0.908712	0	0
1.69	-0.0816291	1.42747	1.64713	0.597086	1.77854	1.02921	0.175341	-0.124286	-0.0320922	1.01384	-0.5221	0	0	0.344152	-0.00909178	-0.249855	0.351192	-0.111534	0	0	0.0212003	-0.0900869	0.0124509	0.089222	-0.174655	0.41594	0.291693	1.5708	0	0	-0.108726	-0.31405	0.485222	0.477234	0.93647	0	0
1.7	-0.0573854	1.43108	1.61664	0.59617	1.79092	1.03118	0.198134	-0.12313	-0.0281334	1.04437	-0.472927	0	0	0.32433	-0.013336	-0.255925	0.345099	-0.106759	0	0	0.0188419	-0.0824267	0.0101497	0.0922702	-0.174144	0.463097	0.271548	1.5708	0	0	-0.104929	-0.309955	0.464556	0.485916	0.966206	0	0
1.71	-0.0315897	1.43432	1.5891	0.59502	1.80333	1.03331	0.219192	-0.122493	-0.0293273	1.06934	-0.42374	0	0	0.304627	-0.0164743	-0.259433	0.337396	-0.104935	0	0	0.0168097	-0.0750126	0.00340123	0.0937573	-0.173553	0.507641	0.254503	1.5708	0	0	-0.102561	-0.30669	0.441479	0.497119	0.997268	0	0
1.72	-0.00497289	1.43859	1.56419	0.593669	1.81571	1.0357	0.237009	-0.122092	-0.0338045	1.0874	-0.37771	0	0	0.283505	-0.0184611	-0.261453	0.328649	-0.105253	0	0	0.0149556	-0.0678284	-0.00336441	0.0919286	-0.173583	0.545186	0.240746	1.5708	0	0	-0.0983161	-0.303838	0.422203	0.507873	1.02711	0	0
1.73	0.0194689	1.44197	1.543	0.592262	1.82788	1.03809	0.25491	-0.122617	-0.041093	1.09984	-0.33711	0	0	0.263314	-0.0192115	-0.261943	0.320235	-0.106289	0	0	0.00890734	-0.0615668	-0.0182322	0.0938399	-0.17314	0.580633	0.231187	1.5708	0	0	-0.0992957	-0.303199	0.394046	0.527429	1.05592	0	0
1.74	0.0451333	1.44511	1.52109	0.59086	1.83985	1.04056	0.272364	-0.123155	-0.0495243	1.10613	-0.30472	0	0	0.243029	-0.0193704	-0.260324	0.311523	-0.107708	0	0	0.00554394	-0.055846	-0.0296362	0.0926335	-0.172599	0.60597	0.222894	1.5708	0	0	-0.0983826	-0.302977	0.371733	0.546041	1.08168	0	0
1.75	0.0775064	1.44792	1.49335	0.589444	1.85177	1.04301	0.288843	-0.122732	-0.0591444	1.10626	-0.278237	0	0	0.222749	-0.0199984	-0.25671	0.302309	-0.109375	0	0	0.00295496	-0.0498426	-0.041179	0.0903125	-0.171959	0.622875	0.216267	1.5708	0	0	-0.0977013	-0.303668	0.352631	0.566091	1.10294	0	0
1.76	0.116802	1.44982	1.45886	0.588099	1.86361	1.04536	0.305258	-0.121184	-0.068914	1.10116	-0.258616	0	0	0.203352	-0.0219101	-0.25381	0.292706	-0.111335	0	0	0.00145768	-0.0431686	-0.0518865	0.0866584	-0.17166	0.630277	0.211956	1.5708	0	0	-0.0964385	-0.305945	0.340076	0.587213	1.11776	0	0
1.77	0.164836	1.45079	1.41541	0.586757	1.87541	1.04758	0.321395	-0.118365	-0.0792562	1.09108	-0.238099	0	0	0.184604	-0.0255243	-0.25227	0.282459	-0.114313	0	0	-0.000194764	-0.0352461	-0.0631171	0.0832795	-0.172015	0.63334	0.209484	1.5708	0	0	-0.0964838	-0.308073	0.325393	0.610541	1.13237	0	0
1.78	0.216316	1.45078	1.3683	0.585515	1.88717	1.04965	0.337109	-0.114725	-0.0900019	1.07628	-0.218193	0	0	0.166645	-0.0301438	-0.25081	0.271603	-0.118267	0	0	-0.00171629	-0.0268161	-0.0742676	0.0798316	-0.17241	0.630492	0.208614	1.5708	0	0	-0.0972682	-0.309984	0.30937	0.63514	1.14654	0	0
1.79	0.263368	1.45126	1.32309	0.584625	1.89881	1.05167	0.351845	-0.110398	-0.0982324	1.05761	-0.198829	0	0	0.147452	-0.0344021	-0.248633	0.25972	-0.122706	0	0	-0.00491737	-0.0191361	-0.0828222	0.0767632	-0.172606	0.621427	0.2093	1.5708	0	0	-0.0980411	-0.31186	0.292441	0.660871	1.15927	0	0
1.8	0.309261	1.45215	1.27761	0.584028	1.91047	1.05361	0.364927	-0.105439	-0.105889	1.03454	-0.17981	0	0	0.127016	-0.0382606	-0.244851	0.247172	-0.12696	0	0	-0.00930019	-0.0117571	-0.0894123	0.0735696	-0.17283	0.607777	0.211518	1.5708	0	0	-0.0988114	-0.31405	0.27586	0.687544	1.17175	0	0
